<svg width="545" height="62" viewBox="0 0 545 62" fill="none" xmlns="http://www.w3.org/2000/svg">
<path d="M477.483 0.121904C477.418 0.819926 477.403 1.52779 477.277 2.21441C475.618 11.3191 473.967 20.4252 472.269 29.5218C470.635 38.2712 468.953 47.0109 467.285 55.753C466.994 57.2768 466.67 58.7939 466.358 60.3127C466.321 60.4936 466.257 60.6687 466.199 60.8692H454.389C457.256 45.7835 460.11 30.7713 462.973 15.702C462.652 15.6602 462.393 15.6184 462.133 15.5939C461.975 15.5793 461.814 15.5881 461.656 15.5874C452.889 15.576 444.125 15.5775 435.358 15.5375C434.296 15.5325 433.497 15.8574 432.75 16.6414C430.894 18.5915 428.978 20.4801 427.07 22.3771C426.592 22.8517 426.288 23.3883 426.164 24.0587C425.346 28.4751 424.528 32.8915 423.687 37.3031C423.565 37.939 423.67 38.4627 424.004 39.0046C425.269 41.0544 426.519 43.1132 427.74 45.1902C428.01 45.651 428.31 45.7966 428.823 45.7949C436.073 45.7777 443.325 45.7835 450.576 45.7835H451.638C450.662 50.8481 449.707 55.8104 448.737 60.8471C448.465 60.8667 448.21 60.9012 447.953 60.9012C438.55 60.9035 429.147 60.8987 419.743 60.9158C419.219 60.9166 418.928 60.7375 418.666 60.2873C416.065 55.8177 413.448 51.357 410.826 46.9013C410.419 46.2115 410.297 45.5134 410.451 44.7146C412.233 35.3563 414.005 25.9964 415.765 16.6341C415.917 15.8222 416.258 15.1601 416.818 14.5759C421.058 10.1381 425.293 5.69547 429.521 1.243C430.018 0.719281 430.617 0.399316 431.253 0.121094C446.664 0.121094 462.073 0.121094 477.482 0.121094L477.483 0.121904Z" fill="white"/>
<path d="M321.973 61.1685C321.427 60.8583 321.057 60.3885 320.736 59.8436C316.783 53.1539 312.816 46.4714 308.855 39.7875C308.771 39.6474 308.684 39.5099 308.604 39.37C308.217 38.7015 307.658 38.3815 306.889 38.3946C305.562 38.4183 304.233 38.411 302.905 38.4118C299.105 38.4135 295.306 38.4118 291.508 38.4118C291.217 38.4118 290.928 38.4118 290.568 38.4118C290.361 39.4003 290.145 40.3488 289.967 41.3046C289.301 44.8634 288.637 48.4223 287.999 51.986C287.83 52.9345 287.442 53.7021 286.757 54.3822C284.867 56.2593 283.013 58.1759 281.174 60.1071C280.574 60.7379 279.917 61.0334 279.052 60.9999C277.806 60.9508 276.557 60.9851 275.307 60.9835C275.046 60.9835 274.785 60.9835 274.406 60.9835C274.453 60.4565 274.457 60.0016 274.539 59.563C276.59 48.6752 278.651 37.7882 280.709 26.902C281.822 21.0174 282.936 15.133 284.045 9.24769C284.222 8.31232 284.603 7.50042 285.272 6.82297C287.128 4.94895 288.984 3.07416 290.808 1.16748C291.412 0.536567 292.071 0.248501 292.934 0.282056C294.206 0.331984 295.484 0.295962 296.758 0.296791C297.019 0.296791 297.281 0.296791 297.677 0.296791C296.323 7.81805 294.872 15.2255 293.51 22.7516C293.861 22.7998 294.135 22.871 294.411 22.871C299.67 22.8816 304.932 22.8784 310.191 22.8972C310.863 22.8997 311.353 22.6108 311.799 22.146C313.163 20.7302 314.539 19.3268 315.907 17.9145C321.207 12.4408 326.518 6.97668 331.796 1.4809C332.623 0.619202 333.517 0.246864 334.697 0.270595C337.723 0.330346 340.754 0.293516 343.782 0.295154C344.069 0.295154 344.36 0.295154 344.756 0.295154C343.897 5.43513 342.887 10.4562 341.944 15.5815C340.752 15.5815 339.607 15.6747 338.485 15.5585C336.93 15.3981 335.686 15.876 334.607 17.0086C330.445 21.3744 326.264 25.7228 322.093 30.0788C321.872 30.3103 321.663 30.5559 321.406 30.8415C321.558 31.1418 321.684 31.4371 321.845 31.7097C324.442 36.0878 327.051 40.4576 329.634 44.8445C330.038 45.5295 330.524 45.8331 331.317 45.8003C332.67 45.7439 334.027 45.7817 335.382 45.784C335.616 45.784 335.851 45.8061 336.159 45.8225C335.185 50.8985 334.222 55.9172 333.258 60.941C333.042 61.0211 332.849 61.0949 332.653 61.1677L321.973 61.1685Z" fill="white"/>
<path d="M487.286 0.30438H488.391C501.408 0.30438 514.423 0.30438 527.439 0.30438C531.263 0.30438 535.089 0.322371 538.913 0.281458C539.943 0.270826 540.589 0.666895 541.092 1.5826C542.002 3.24546 542.944 4.89604 543.985 6.47284C544.644 7.47042 544.734 8.4761 544.526 9.57925C543.828 13.2706 543.124 16.9597 542.426 20.6511C541.236 26.9637 540.047 33.2761 538.859 39.5895C538.054 43.8694 537.253 48.15 536.451 52.4306C536.333 53.0657 536.052 53.6018 535.603 54.0608C533.607 56.0991 531.616 58.1442 529.629 60.1925C529.047 60.7914 528.349 61.0158 527.539 61.0115C524.27 60.9944 521.003 60.9936 517.736 60.9936C504.136 60.9919 490.536 60.9936 476.936 60.9936H475.797C479.634 40.7262 483.451 20.5684 487.286 0.30438ZM490.607 45.7023H525.844C526.295 43.2393 526.741 40.7999 527.205 38.2639H497.865C498.822 33.1346 499.764 28.0929 500.715 22.9923H530.002C530.629 20.8156 531.395 16.562 531.316 15.7135H496.268C494.383 25.7009 492.504 35.6429 490.605 45.7023H490.607Z" fill="white"/>
<path d="M115.621 45.9627C117.757 50.9742 119.847 55.8768 121.97 60.857C121.69 60.8897 121.49 60.9323 121.29 60.9323C116.721 60.9364 112.152 60.9265 107.583 60.9477C107.067 60.9502 106.84 60.7391 106.644 60.2899C104.689 55.8136 102.717 51.3455 100.748 46.8752C100.619 46.5789 100.482 46.2859 100.323 45.9325H89.5812C90.5322 40.7951 91.4672 35.7451 92.411 30.6487C92.9499 30.6248 93.4218 30.5855 93.8945 30.5855C100.669 30.5855 107.443 30.5898 114.217 30.5931C114.483 30.5931 114.748 30.5931 115.014 30.5906C115.629 30.5855 116.155 30.3573 116.588 29.9129C118.637 27.8124 120.684 25.7101 122.729 23.6061C122.858 23.4736 122.969 23.3239 123.104 23.1634C123 22.9523 122.914 22.7559 122.809 22.5727C121.626 20.5039 120.422 18.4467 119.266 16.3624C118.948 15.787 118.564 15.5874 117.926 15.5882C108.762 15.6071 99.5957 15.6013 90.4308 15.6013C90.1184 15.6013 89.8051 15.6013 89.4409 15.6013C89.2057 16.7944 88.9785 17.9089 88.7672 19.0259C87.361 26.4621 85.9573 33.8983 84.5543 41.3342C83.883 44.8916 83.1983 48.4472 82.5518 52.0093C82.3796 52.9578 82.0105 53.7385 81.3329 54.4217C79.4563 56.3136 77.6087 58.2343 75.7743 60.1695C75.2162 60.7588 74.601 61.0346 73.7966 61.0157C72.2333 60.9789 70.6686 61.0051 69.0312 61.0051C69.0455 60.7366 69.0327 60.5297 69.0703 60.3325C70.3378 53.5911 71.6053 46.849 72.8831 40.1093C74.3482 32.3802 75.8229 24.6528 77.2921 16.9246C77.7753 14.3845 78.2663 11.8452 78.7287 9.30105C78.9 8.35585 79.2922 7.58094 79.9682 6.89771C81.7857 5.06222 83.5769 3.19725 85.3402 1.30606C85.9907 0.608844 86.685 0.290517 87.6496 0.292983C100.613 0.323263 113.577 0.324073 126.54 0.30117C127.337 0.299533 127.783 0.558108 128.187 1.25532C130.75 5.68496 133.352 10.0908 135.953 14.4974C136.376 15.2134 136.48 15.9263 136.315 16.7592C135.47 21.0317 134.666 25.3116 133.855 29.5914C133.72 30.3089 133.428 30.9186 132.923 31.4466C128.57 36.0021 124.225 40.5643 119.883 45.1314C119.309 45.7352 118.653 46.033 117.817 45.9741C117.136 45.9267 116.449 45.9627 115.621 45.9627Z" fill="white"/>
<path d="M9.11233 15.5946C10.0737 10.4317 11.008 5.40971 11.959 0.303349H13.0104C23.1591 0.303349 33.3076 0.304987 43.4563 0.303349C48.1588 0.30254 52.8612 0.318085 57.5629 0.269795C58.7075 0.257525 59.4346 0.672412 60.0173 1.68795C62.4168 5.86873 64.8561 10.0259 67.3232 14.1657C67.8741 15.0905 68.0199 15.9823 67.8159 17.0389C66.5396 23.6402 65.3025 30.2498 64.0517 36.8562C63.5454 39.5313 63.0234 42.2022 62.542 44.8823C62.4048 45.6457 62.0676 46.2505 61.5398 46.7833C60.309 48.0263 59.0894 49.2824 57.8697 50.5369C54.7736 53.7227 51.6718 56.9027 48.59 60.1039C47.9634 60.7543 47.2515 61.008 46.3771 61.0065C38.4869 60.9909 30.5966 60.9934 22.7063 60.9926C15.6395 60.9918 8.57266 60.9926 1.50585 60.9926H0.46875C2.86501 48.3029 5.24214 35.7147 7.62086 23.1182H19.4675C18.0692 30.6688 16.6829 38.1556 15.2768 45.753C15.6267 45.7676 15.928 45.7905 16.2302 45.7905C21.0921 45.793 25.9538 45.7905 30.8158 45.793C34.9339 45.7948 39.0513 45.7799 43.1685 45.821C44.2352 45.8316 45.0323 45.4789 45.7609 44.6768C47.4827 42.7833 49.2589 40.942 51.0413 39.1073C51.6487 38.4821 51.9923 37.7857 52.1501 36.9111C52.925 32.6246 53.7396 28.3456 54.5624 24.069C54.6898 23.4079 54.5847 22.8375 54.2554 22.2728C53.1361 20.3554 52.0138 18.439 50.9218 16.5061C50.524 15.8015 49.946 15.5576 49.2006 15.5626C47.6334 15.5732 46.0662 15.5765 44.4981 15.5772C32.9945 15.5848 21.4914 15.5903 9.98762 15.5969C9.75087 15.5969 9.51489 15.5969 9.11154 15.5969L9.11233 15.5946Z" fill="white"/>
<path d="M261.579 15.5151C261.201 15.5151 260.914 15.5151 260.625 15.5151C251.594 15.511 242.561 15.5151 233.528 15.4898C232.581 15.4873 231.856 15.7959 231.201 16.4955C229.379 18.4423 227.527 20.3587 225.666 22.2655C225.096 22.8497 224.762 23.5241 224.612 24.3252C222.711 34.4103 220.804 44.4944 218.902 54.5785C218.558 56.3977 218.226 58.2193 217.885 60.0384C217.836 60.3019 217.763 60.5604 217.693 60.8461C217.489 60.8649 217.307 60.8952 217.127 60.8959C215.532 60.9 213.939 60.8821 212.344 60.9083C211.886 60.9156 211.627 60.7488 211.4 60.3477C210.265 58.3445 209.126 56.3437 207.942 54.3707C207.521 53.6678 207.42 52.9657 207.568 52.1841C208.017 49.8306 208.452 47.4747 208.897 45.1212C210.088 38.8358 211.283 32.5519 212.473 26.2662C213.06 23.1641 213.646 20.0609 214.218 16.9553C214.406 15.9292 214.862 15.0774 215.58 14.3343C219.77 9.99646 223.953 5.65188 228.117 1.28698C228.777 0.59304 229.498 0.284536 230.443 0.286174C243.274 0.304184 256.105 0.307458 268.936 0.281262C270 0.278815 270.649 0.660149 271.159 1.62004C272.115 3.41381 273.16 5.15684 274.205 6.8966C274.638 7.61758 274.741 8.33279 274.584 9.15682C273.165 16.5895 271.762 24.0264 270.362 31.4634C269.073 38.312 267.793 45.162 266.508 52.0115C266.333 52.9451 265.928 53.7447 265.26 54.4256C263.412 56.3077 261.575 58.2012 259.76 60.1178C259.16 60.7503 258.496 61.0383 257.634 61.0081C256.36 60.9639 255.084 60.995 253.81 60.9942C253.549 60.9942 253.29 60.9942 252.955 60.9942C255.835 45.8044 258.698 30.7039 261.579 15.5151Z" fill="white"/>
<path d="M149.132 60.9907C147.772 58.67 146.445 56.404 145.118 54.138C143.694 51.7085 142.279 49.2732 140.841 46.8527C140.459 46.2085 140.344 45.5506 140.482 44.8199C142.147 36.0474 143.81 27.2742 145.468 18.5011C146.029 15.5322 146.593 12.5624 147.117 9.58694C147.319 8.44142 147.794 7.50759 148.614 6.6901C150.386 4.92415 152.124 3.11909 153.832 1.28678C154.486 0.584673 155.182 0.231963 156.146 0.286802C157.364 0.35553 158.589 0.303985 159.811 0.304794C160.073 0.304794 160.335 0.304794 160.626 0.304794C160.626 0.532299 160.651 0.693504 160.623 0.844077C159.656 6.00842 158.687 11.172 157.715 16.3356C156.47 22.9437 155.224 29.5508 153.978 36.1587C153.903 36.5597 153.847 36.9673 153.738 37.3593C153.581 37.9297 153.703 38.4288 153.998 38.9157C155.219 40.9296 156.443 42.9419 157.643 44.9681C158.021 45.6055 158.536 45.8092 159.239 45.8067C165.402 45.7888 171.566 45.7929 177.73 45.7911C178.713 45.7911 179.695 45.7831 180.678 45.801C181.306 45.8125 181.807 45.5735 182.238 45.1202C184.206 43.0515 186.176 40.986 188.15 38.9255C188.653 38.401 188.925 37.7806 189.06 37.0588C190.918 27.1311 192.785 17.2055 194.654 7.2801C195.078 5.03471 195.515 2.7924 195.962 0.473375C196.266 0.419364 196.57 0.323613 196.876 0.318701C198.257 0.297436 199.638 0.311342 201.019 0.291714C201.643 0.2827 202.073 0.554392 202.39 1.09529C203.569 3.10426 204.747 5.11157 205.946 7.10751C206.325 7.73681 206.346 8.39057 206.216 9.07804C205.362 13.5992 204.507 18.1189 203.653 22.6401C202.341 29.5959 201.034 36.5515 199.724 43.5072C199.664 43.8281 199.6 44.1488 199.551 44.4721C199.397 45.4762 198.949 46.292 198.238 47.0187C194.035 51.3067 189.85 55.611 185.686 59.9375C184.96 60.692 184.179 61.0154 183.144 61.0129C172.092 60.9849 161.04 60.9925 149.989 60.9907C149.724 60.9907 149.46 60.9907 149.132 60.9907Z" fill="white"/>
<path d="M357.6 45.7807H359.167C371.521 45.7807 383.875 45.7807 396.23 45.7807C396.734 45.7807 397.243 45.8175 397.744 45.7733C398.479 45.7086 398.947 46.0442 399.301 46.6694C399.821 47.5892 400.365 48.4941 400.908 49.4C401.519 50.4221 402.123 51.4491 402.765 52.4525C403.124 53.0153 403.229 53.5947 403.099 54.2421C402.718 56.1643 402.349 58.0898 401.962 60.0112C401.782 60.9105 401.765 60.9188 400.864 60.9188C381.815 60.9188 362.766 60.9188 343.717 60.9188C343.458 60.9188 343.201 60.9188 342.855 60.9188C342.994 60.0996 343.105 59.3803 343.24 58.6659C345.336 47.6194 347.432 36.5737 349.534 25.528C350.59 19.9651 351.663 14.4053 352.712 8.84085C352.834 8.19422 353.112 7.67799 353.558 7.21724C355.546 5.16813 357.529 3.11498 359.494 1.04543C359.991 0.521712 360.535 0.272942 361.257 0.294227C362.665 0.334311 364.074 0.301585 365.483 0.302394C365.665 0.302394 365.847 0.324506 366.138 0.343326C363.297 15.4634 360.466 30.5362 357.602 45.7799L357.6 45.7807Z" fill="white"/>
</svg>
