<svg width="22" height="22" viewBox="0 0 22 22" fill="none" xmlns="http://www.w3.org/2000/svg">
<g clip-path="url(#clip0_1_878)">
<path d="M10.9471 0.785156C8.24264 0.799025 5.6541 1.88487 3.74913 3.80455C1.84415 5.72423 0.778255 8.32105 0.78519 11.0255C0.792124 13.7299 1.87133 16.3213 3.78612 18.2312C5.70091 20.141 8.29498 21.2136 10.9994 21.2136C13.7039 21.2136 16.298 20.141 18.2128 18.2312C20.1276 16.3213 21.2068 13.7299 21.2137 11.0255C21.2206 8.32105 20.1547 5.72423 18.2498 3.80455C16.3448 1.88487 13.7562 0.799025 11.0518 0.785156H10.9471Z" stroke="#67A739" stroke-width="1.3619"/>
<path d="M10.9994 0.785156V21.2137M21.2137 10.9994H0.785156M3.08992 4.71373C5.39849 6.3607 8.1636 7.24594 10.9994 7.24594C13.8353 7.24594 16.6004 6.3607 18.909 4.71373M18.909 17.2852C16.6004 15.6382 13.8353 14.7529 10.9994 14.7529C8.1636 14.7529 5.39849 15.6382 3.08992 17.2852M10.2137 1.04706C8.75815 2.27633 7.58833 3.8084 6.7859 5.53638C5.98347 7.26436 5.56775 9.14662 5.56775 11.0518C5.56775 12.957 5.98347 14.8393 6.7859 16.5673C7.58833 18.2952 8.75815 19.8273 10.2137 21.0566M11.7852 21.0566C13.2407 19.8273 14.4105 18.2952 15.213 16.5673C16.0154 14.8393 16.4311 12.957 16.4311 11.0518C16.4311 9.14662 16.0154 7.26436 15.213 5.53638C14.4105 3.8084 13.2407 2.27633 11.7852 1.04706" stroke="#67A739" stroke-width="0.942857"/>
</g>
<defs>
<clipPath id="clip0_1_878">
<rect width="22" height="22" fill="white"/>
</clipPath>
</defs>
</svg>
