<svg width="64" height="18" viewBox="0 0 64 18" fill="none" xmlns="http://www.w3.org/2000/svg">
<path d="M42.5068 0.890137C43.9648 0.575211 45.4811 0.709175 46.8652 1.2749C48.2495 1.8407 49.4396 2.81332 50.2861 4.06982C51.1328 5.32623 51.5984 6.81093 51.625 8.3374C51.6258 8.39085 51.5837 8.43485 51.5303 8.43604L50.5527 8.45459C50.5271 8.45495 50.5019 8.44506 50.4834 8.42725C50.4649 8.4094 50.4546 8.38455 50.4541 8.35889C50.4317 7.06683 50.0376 5.81027 49.3213 4.74756C48.6054 3.68498 47.5998 2.86319 46.4307 2.38525C45.2614 1.90733 43.9804 1.79409 42.749 2.06006C41.5177 2.32605 40.3901 2.96003 39.5078 3.88135C38.6255 4.80269 38.0277 5.97077 37.79 7.23975C37.5527 8.50882 37.6854 9.82177 38.1729 11.0132C38.6603 12.2046 39.48 13.2211 40.5283 13.936C41.2119 14.4022 41.9729 14.7268 42.7686 14.896C42.7952 14.9017 42.8182 14.9185 42.832 14.9419C42.8457 14.9652 42.8496 14.9931 42.8418 15.019L42.5518 15.98C42.537 16.0288 42.4863 16.0576 42.4365 16.0464C41.5283 15.8409 40.6601 15.4645 39.8779 14.9312C38.6377 14.0851 37.6684 12.8823 37.0928 11.4741C36.5168 10.0659 36.3591 8.51467 36.6396 7.01514C36.9205 5.51564 37.6271 4.13424 38.6709 3.04443L38.8691 2.84424C39.881 1.86266 41.1396 1.18543 42.5068 0.890137Z" fill="#67A739" stroke="#67A739" stroke-width="0.194468" stroke-linejoin="round"/>
<path d="M50.9801 9.3739C50.9488 9.42183 50.8826 9.42183 50.8515 9.3739L49.4985 7.29216C49.4624 7.23666 49.4997 7.16064 49.5628 7.16064H52.2685C52.3319 7.16064 52.3689 7.23666 52.3329 7.29216L50.9801 9.3739Z" fill="#67A739"/>
<path fill-rule="evenodd" clip-rule="evenodd" d="M45.2369 3.68018C45.5171 3.68018 45.8029 3.92974 45.8029 4.2376L44.7078 9.23324C44.6833 9.34665 44.6882 9.48135 44.5998 9.5582C44.5629 9.5904 44.5144 9.6099 44.4612 9.6099H39.8261C39.5133 9.6099 39.2598 9.36036 39.2598 9.05248C39.2598 8.74463 39.5133 8.49505 39.8261 8.49505H43.637C43.7527 8.49505 43.8032 8.53078 43.8464 8.289L44.6706 4.2376C44.7809 3.68018 45.149 3.68018 45.2369 3.68018Z" fill="#67A739"/>
<path d="M50.9801 9.3739C50.9488 9.42183 50.8826 9.42183 50.8515 9.3739L49.4985 7.29216C49.4624 7.23666 49.4997 7.16064 49.5628 7.16064H52.2685C52.3319 7.16064 52.3689 7.23666 52.3329 7.29216L50.9801 9.3739Z" stroke="#67A739" stroke-width="0.351175"/>
<path d="M44.9844 16.3599L45.1449 15.4687L47.6902 13.5407C47.908 13.3693 48.0929 13.2151 48.2446 13.078C48.398 12.9409 48.5191 12.8066 48.608 12.6752C48.699 12.542 48.7584 12.3982 48.7869 12.2439C48.8171 12.0725 48.8018 11.925 48.7414 11.8012C48.6827 11.6755 48.5877 11.5793 48.4567 11.5127C48.3274 11.4442 48.1717 11.4099 47.9898 11.4099C47.8001 11.4099 47.6274 11.4461 47.472 11.5184C47.3162 11.5908 47.1869 11.6946 47.0841 11.8298C46.981 11.9649 46.9124 12.1259 46.8782 12.3125H45.6328C45.7014 11.9297 45.8541 11.5975 46.0902 11.3156C46.3268 11.0338 46.6237 10.8158 46.981 10.6615C47.3386 10.5073 47.7343 10.4302 48.1686 10.4302C48.6131 10.4302 48.9867 10.5044 49.2897 10.653C49.5948 10.7996 49.816 11.0033 49.9531 11.2642C50.0906 11.5251 50.1289 11.824 50.0685 12.1611C50.0281 12.3839 49.9423 12.6029 49.811 12.8181C49.6796 13.0313 49.4737 13.2693 49.1927 13.5321C48.9121 13.793 48.5273 14.1062 48.0383 14.4719L46.9871 15.3087L46.9779 15.3487H49.5867L49.4078 16.3599H44.9844Z" fill="white"/>
<path d="M50.3008 15.3176L50.4617 14.3302L53.5619 10.4302H54.4066L54.1823 11.7968H53.6797L51.7259 14.2665L51.7201 14.3129H55.2081L55.0444 15.3176H50.3008ZM52.9528 16.3599L53.1768 15.0135L53.2717 14.5821L53.9526 10.4302H55.119L54.1421 16.3599H52.9528Z" fill="white"/>
<path d="M59.501 10.2271L56.3083 17.1791H55.207L58.3997 10.2271H59.501Z" fill="white"/>
<path d="M59.2969 16.3599L62.5346 11.4957L62.5461 11.4551H59.7077L59.8715 10.4302H63.9998L63.8302 11.4696L60.5813 16.3599H59.2969Z" fill="white"/>
<path d="M2.38965 4.94817C2.65543 3.55771 2.91373 2.20516 3.17665 0.829908H3.46734C6.27307 0.829908 9.07881 0.830349 11.8845 0.829908C13.1846 0.829688 14.4847 0.833875 15.7845 0.820872C16.101 0.817566 16.302 0.929305 16.4631 1.20281C17.1264 2.3288 17.8008 3.4484 18.4829 4.56336C18.6352 4.81241 18.6755 5.05264 18.6191 5.33716C18.2663 7.11507 17.9242 8.89519 17.5784 10.6744C17.4385 11.3949 17.2941 12.1142 17.161 12.836C17.1231 13.0417 17.0299 13.2045 16.884 13.348C16.5437 13.6828 16.2065 14.0211 15.8693 14.3589C15.0134 15.2169 14.1558 16.0734 13.3038 16.9356C13.1306 17.1108 12.9338 17.1791 12.692 17.1787C10.5107 17.1745 8.32928 17.1751 6.14789 17.1749C4.19417 17.1747 2.24045 17.1749 0.286722 17.1749H0C0.662481 13.7573 1.31967 10.367 1.9773 6.97446H5.25246C4.86591 9.00803 4.48266 11.0244 4.09389 13.0705C4.19064 13.0745 4.27395 13.0807 4.35748 13.0807C5.70161 13.0813 7.04575 13.0807 8.38988 13.0813C9.5284 13.0818 10.6667 13.0778 11.805 13.0888C12.0999 13.0917 12.3202 12.9967 12.5217 12.7807C12.9977 12.2707 13.4887 11.7748 13.9815 11.2807C14.1495 11.1123 14.2444 10.9248 14.2881 10.6892C14.5023 9.53477 14.7275 8.38233 14.955 7.23056C14.9902 7.05248 14.9611 6.89887 14.8701 6.7468C14.5607 6.23041 14.2504 5.71426 13.9485 5.19369C13.8385 5.00393 13.6787 4.93825 13.4726 4.93957C13.0394 4.94244 12.6061 4.94332 12.1726 4.94354C8.9922 4.94552 5.81202 4.94707 2.63163 4.94883C2.56618 4.94883 2.50094 4.94883 2.38943 4.94883L2.38965 4.94817Z" fill="white"/>
<path d="M22.5726 13.0795H23.0059C26.4214 13.0795 29.837 13.0795 33.2525 13.0795C33.392 13.0795 33.5324 13.0894 33.671 13.0775C33.8742 13.0601 34.0036 13.1505 34.1014 13.3188C34.2451 13.5666 34.3954 13.8103 34.5455 14.0543C34.7148 14.3296 34.8818 14.6062 35.059 14.8764C35.1584 15.028 35.1873 15.184 35.1516 15.3584C35.046 15.8761 34.9437 16.3946 34.8373 16.9121C34.7875 17.1543 34.7824 17.1565 34.5338 17.1565C29.2672 17.1565 24.0007 17.1565 18.7343 17.1565C18.6629 17.1565 18.5915 17.1565 18.4961 17.1565C18.5347 16.9359 18.5651 16.7422 18.6025 16.5498C19.1819 13.5747 19.7616 10.5998 20.3423 7.62499C20.6347 6.12676 20.9311 4.62941 21.2214 3.13073C21.2551 2.95662 21.3318 2.81756 21.4552 2.69348C22.0046 2.14161 22.5527 1.58865 23.0962 1.03127C23.2337 0.890221 23.3838 0.823222 23.5839 0.828952C23.9729 0.839751 24.3623 0.830935 24.7518 0.831156C24.8022 0.831156 24.8527 0.837106 24.9329 0.842175C24.1477 4.91437 23.3649 8.97379 22.573 13.0793L22.5726 13.0795Z" fill="white"/>
</svg>
