<svg width="61" height="53" viewBox="0 0 61 53" fill="none" xmlns="http://www.w3.org/2000/svg">
<g clip-path="url(#clip0_1_677)">
<path d="M41.8775 36.7664C42.2175 35.1978 42.0439 33.576 41.8954 31.9915C52.5845 30.2149 57.4112 17.2328 49.9208 9.1573C42.9688 1.66151 30.6214 4.14054 26.8484 13.4271L22.1953 12.4366C26.9558 -1.69071 46.1603 -4.51474 54.9012 7.76484C63.1144 19.3011 55.7975 35.0876 41.8758 36.7664H41.8775Z" fill="#67A739"/>
<path d="M45.9354 25.1659C45.3933 25.6567 44.4791 25.6852 43.8584 25.2975C42.8619 24.0704 37.8474 20.8961 37.4843 19.7277C37.0495 18.3317 37.6489 15.0008 37.7598 13.4127C37.8456 12.191 37.6667 8.61647 38.3984 7.83043C39.1981 6.96971 40.733 7.20979 41.0819 8.3426C41.3377 9.17132 41.4415 11.5205 41.5166 12.5271C41.6418 14.1881 41.5685 15.9629 41.7384 17.6345C42.9263 19.685 44.8423 21.3495 46.2502 23.2773C46.4792 23.8552 46.4023 24.7427 45.9336 25.1659H45.9354Z" fill="#67A739"/>
<path d="M22.9119 52.0421C20.817 51.8643 18.3357 52.284 16.2927 52.0421C10.2585 51.3308 4.43185 45.7165 2.64467 40.1057C-2.43957 24.1343 15.5897 10.7752 29.515 20.181C41.2023 28.0751 39.1128 46.0295 25.9478 51.0587C24.9316 51.4464 23.903 51.6242 22.9137 52.0421H22.9119ZM21.1677 25.1835L20.7741 22.8201C19.8402 22.5373 19.037 22.5338 18.0924 22.7472C17.9994 22.8414 18.2015 24.8954 17.8634 25.3614C17.7328 25.5427 16.4913 25.9055 16.1729 26.0816C12.9098 27.8902 12.2818 32.0942 15.3106 34.4594C16.7543 35.5869 21.046 36.5953 21.4092 38.178C21.9655 40.609 18.5826 40.6179 16.9707 40.2694C16.2587 40.1164 14.7596 39.3019 14.3821 39.2806C13.8275 39.2504 13.0815 41.9286 13.3391 42.4496C14.4859 43.4704 16.1568 43.4917 17.5504 43.9559C18.0137 44.3436 17.409 46.1628 18.0244 46.547C18.4681 46.8244 20.5666 46.8475 20.86 46.3567C21.2965 45.624 20.4199 44.1924 21.4199 43.538C21.9512 43.1894 22.8296 43.0649 23.5094 42.5937C26.2036 40.7282 26.5417 36.8336 24.1749 34.5395C22.8761 33.2804 18.1854 31.9039 17.808 30.7391C17.1604 28.7331 19.368 28.4859 20.8367 28.6211C22.0282 28.7296 23.021 29.3804 24.1517 29.4694C24.3162 28.7367 25.1964 26.9352 24.7975 26.2861C24.4916 25.7864 21.8153 25.404 21.1694 25.1817L21.1677 25.1835Z" fill="#67A739"/>
</g>
<defs>
<clipPath id="clip0_1_677">
<rect width="56.5797" height="52.1167" fill="white" transform="translate(1.76562)"/>
</clipPath>
</defs>
</svg>
