<svg width="43" height="56" viewBox="0 0 43 56" fill="none" xmlns="http://www.w3.org/2000/svg">
<path d="M34.0755 33.08C32.2952 34.7073 34.1583 37.866 31.9016 38.8236C29.645 39.7812 28.4885 37.0863 25.9998 37.778C23.6967 38.4177 24.0298 41.2585 21.7409 41.5684C19.0745 41.9283 19.2885 38.0619 16.495 37.652C14.4947 37.3582 12.8921 40.037 10.803 38.7016C8.96423 37.5261 10.5729 35.0851 8.98442 33.3059C7.39592 31.5266 4.60443 33.3119 3.35704 31.2827C2.01882 29.1016 4.86481 27.9261 4.28956 25.1613C3.87981 23.1941 1.02778 23.2381 0.587758 21.4308C-0.247871 17.9923 5.1817 18.8319 4.28956 14.5637C3.97872 13.0783 2.16819 12.1967 3.32071 10.3155C4.57213 8.27433 7.14159 10.0516 8.8734 8.41827C10.6718 6.72298 8.80074 3.97214 11.0109 2.74065C13.3826 1.4192 15.3566 5.62544 18.1683 3.03253C19.4924 1.81104 19.3834 -0.19812 21.7934 0.0157902C23.4485 0.161729 23.7896 2.08892 24.8109 3.03253C27.5762 5.58346 29.7258 1.26127 32.0873 2.82262C34.2592 4.25802 32.055 7.34472 34.5397 8.79012C36.2433 9.7817 38.5221 8.39029 39.6282 10.3455C41.0714 12.8964 36.4734 14.9136 39.6544 17.7184C40.916 18.8299 42.9949 19.1418 42.3874 21.4208C41.8828 23.312 38.7905 23.1501 38.4837 25.765C38.2557 27.7122 40.6737 28.8077 39.6726 31.1248C38.8006 33.1439 35.5893 31.6945 34.0755 33.078V33.08ZM13.6874 19.4836C12.9627 20.1854 12.8598 21.2789 13.4169 22.1165C13.7802 22.6643 18.6164 27.4543 19.1694 27.8142C20.332 28.5718 21.1475 28.0621 22.1002 27.3164C24.3124 25.5831 29.1404 20.7151 30.9833 18.522C31.831 17.5145 32.4466 16.6248 31.5585 15.3454C30.6522 14.0399 29.0738 14.5777 28.0485 15.4153C26.8818 16.3669 20.8891 22.9082 20.3562 23.0022C18.5538 22.0986 16.0449 17.2046 13.6914 19.4856L13.6874 19.4836Z" fill="#67A739"/>
<path d="M15.8359 42.2063C16.3607 43.7396 18.1086 45.0211 19.6749 45.4089L15.1335 55.9985L9.63932 49.8411L1.71094 50.4029L6.1535 39.6094C8.35358 43.0999 12.1341 44.2274 15.8359 42.2083V42.2063Z" fill="#67A739"/>
<path d="M41.2687 50.4029L33.3403 49.8411L27.8462 55.9985L23.3047 45.4089C24.9416 44.9371 26.516 43.8116 27.1437 42.2083C30.8677 44.2574 34.6018 43.0719 36.8261 39.6094L41.2687 50.4029Z" fill="#67A739"/>
</svg>
