<svg width="59" height="48" viewBox="0 0 59 48" fill="none" xmlns="http://www.w3.org/2000/svg">
<g clip-path="url(#clip0_1_698)">
<path d="M20.3645 3.47167C37.1067 1.47469 38.4803 28.7549 22.6789 29.7249C7.14027 30.6792 5.67179 5.22319 20.3645 3.47167Z" fill="#67A739"/>
<path d="M39.3777 17.1641C39.5951 11.617 37.5495 6.42524 33.8438 2.34489C40.9154 -4.01125 49.2657 3.68995 46.4493 11.9174C45.4592 14.8078 42.5854 17.3624 39.3777 17.1661V17.1641Z" fill="#67A739"/>
<path d="M10.8231 31.1758C12.2204 32.1144 13.4597 33.2886 14.9973 34.0289C19.9957 36.4343 25.4703 36.0612 30.2256 33.3004C30.9747 32.8664 32.3424 31.598 32.874 31.3996C33.3049 31.2367 34.8386 32.0005 35.3663 32.2499C38.7776 33.862 43.519 36.937 43.9261 41.0252C44.2424 44.2003 43.6791 47.3126 40.0741 47.9939L4.29304 47.9998C0.468672 47.6758 -0.268531 44.2965 0.0753652 41.0487C0.599116 36.1005 6.74973 32.9627 10.8231 31.1777V31.1758Z" fill="#67A739"/>
<path d="M36.6172 26.9778L38.392 23.3452C40.8032 23.3648 42.6453 23.0035 44.8529 22.1061C45.6534 21.7802 46.523 20.9653 47.3392 21.1263C48.1555 21.2873 51.1004 22.762 51.966 23.2175C55.2331 24.9337 58.6345 27.2115 58.9566 31.1956C59.4646 37.4987 55.488 37.3848 50.3849 37.159C47.0151 32.3718 42.0859 29.0278 36.6172 26.9778Z" fill="#67A739"/>
</g>
<defs>
<clipPath id="clip0_1_698">
<rect width="59" height="48" fill="white"/>
</clipPath>
</defs>
</svg>
