<svg width="57" height="52" viewBox="0 0 57 52" fill="none" xmlns="http://www.w3.org/2000/svg">
<g clip-path="url(#clip0_1_709)">
<path d="M28.8829 0.757812C14.6387 0.757812 3.07812 12.1832 3.07812 26.2608C3.07812 40.3385 14.6387 51.7638 28.8829 51.7638C43.1272 51.7638 54.6877 40.3385 54.6877 26.2608C54.6877 12.1832 43.1272 0.757812 28.8829 0.757812ZM28.8829 46.6632C17.503 46.6632 8.23909 37.5076 8.23909 26.2608C8.23909 15.014 17.503 5.85841 28.8829 5.85841C40.2628 5.85841 49.5268 15.014 49.5268 26.2608C49.5268 37.5076 40.2628 46.6632 28.8829 46.6632Z" fill="#67A739"/>
<ellipse cx="28.9684" cy="26.9275" rx="21.4918" ry="21.3571" fill="#67A739"/>
<path d="M30.6431 15.444C27.7787 12.6132 23.4435 12.1286 20.0631 13.9393L26.1272 19.9325L22.4887 23.5284L16.4246 17.5352C14.5925 20.9016 15.0828 25.1606 17.9471 27.9915C20.476 30.4908 24.1403 31.1538 27.2884 30.0572L36.0879 38.7537C36.604 39.2638 37.4039 39.2638 37.92 38.7537L41.5327 35.1833C42.0488 34.6733 42.0488 33.8827 41.5327 33.3726L32.7333 24.6761C33.8429 21.5392 33.1719 17.9433 30.6431 15.444Z" fill="#1A1A1A"/>
</g>
<defs>
<clipPath id="clip0_1_709">
<rect width="57" height="52" fill="white"/>
</clipPath>
</defs>
</svg>
