<svg width="73" height="56" viewBox="0 0 73 56" fill="none" xmlns="http://www.w3.org/2000/svg">
<g clip-path="url(#clip0_1_722)">
<path d="M0.5 34.549C0.5 34.2294 0.65273 33.9291 0.910973 33.7409L25.4617 15.8461C25.5621 15.7729 25.6842 15.7355 25.8084 15.7398C25.9568 15.7449 26.097 15.8093 26.1977 15.9185L31.9104 22.1156C32.2636 22.4987 32.8517 22.5464 33.262 22.2253L52.4468 7.21074C52.8701 6.87942 52.9558 6.27268 52.6407 5.83712L51.2684 3.94019C50.8323 3.33729 51.1839 2.48622 51.9184 2.36699L64.8567 0.266747C65.6015 0.145857 66.2067 0.861756 65.9636 1.57601L61.2564 15.4077C61.202 15.5674 61.0865 15.7331 60.9325 15.6641C60.291 15.3766 58.9706 13.1857 58.1865 12.6238C58.0056 12.4942 57.7807 12.5673 57.6055 12.7044L32.0198 32.7333C31.9135 32.8165 31.7895 32.8899 31.6556 32.8718C31.2545 32.8175 30.8922 32.3234 30.6239 32.0441C28.7851 30.1434 27.069 27.8579 25.2587 25.889C25.1554 25.7767 25.019 25.7004 24.8695 25.6699C24.6687 25.6288 24.4598 25.6737 24.2936 25.7938L2.08534 41.8268C1.424 42.3043 0.5 41.8317 0.5 41.0161V34.549Z" fill="#67A739"/>
<path d="M63.1225 23.1691C63.4911 23.3262 63.7304 23.6883 63.7304 24.0891V54.9998C63.7304 55.5521 63.2827 55.9998 62.7304 55.9998H53.6276C53.4851 55.9998 53.3484 55.9437 53.2471 55.8436C53.144 55.7419 53.0859 55.603 53.0859 55.4582V24.2219C53.0859 23.9193 53.2229 23.633 53.4586 23.4432L56.5571 20.9468C56.8447 20.7151 57.2367 20.6608 57.5765 20.8056L63.1225 23.1691Z" fill="#67A739"/>
<path d="M36.625 55.9994C36.0727 55.9994 35.625 55.5517 35.625 54.9994V37.8904C35.625 37.5822 35.7671 37.2913 36.0101 37.1018L44.6545 30.3609C45.3112 29.8488 46.2695 30.3167 46.2695 31.1495V55.4578C46.2695 55.6026 46.2114 55.7415 46.1083 55.8432C46.007 55.9433 45.8703 55.9994 45.7279 55.9994H36.625Z" fill="#67A739"/>
<path d="M28.6015 54.9999C28.6015 55.5522 28.1538 55.9999 27.6015 55.9999H18.4987C18.3562 55.9999 18.2195 55.9438 18.1182 55.8438C18.0151 55.742 17.957 55.6032 17.957 55.4583V38.3372C17.957 38.0144 18.1128 37.7115 18.3754 37.5238L24.1211 33.4158C24.5406 33.1158 25.1194 33.1841 25.4576 33.5734L28.3564 36.9104C28.5145 37.0923 28.6015 37.3252 28.6015 37.5662V54.9999Z" fill="#67A739"/>
</g>
<defs>
<clipPath id="clip0_1_722">
<rect x="0.5" width="72" height="56" rx="3" fill="white"/>
</clipPath>
</defs>
</svg>
