<svg width="239" height="32" viewBox="0 0 239 32" fill="none" xmlns="http://www.w3.org/2000/svg">
<path d="M152.17 5.89894C152.149 6.12161 152.144 6.34742 152.104 6.56645C151.575 9.47086 151.048 12.3758 150.506 15.2776C149.985 18.0687 149.449 20.8566 148.916 23.6454C148.824 24.1315 148.72 24.6155 148.621 25.1C148.609 25.1577 148.588 25.2135 148.57 25.2775H144.802C145.717 20.4651 146.627 15.6762 147.541 10.869C147.438 10.8557 147.356 10.8424 147.273 10.8345C147.222 10.8299 147.171 10.8327 147.121 10.8325C144.324 10.8288 141.528 10.8293 138.732 10.8165C138.393 10.8149 138.138 10.9186 137.9 11.1687C137.308 11.7908 136.696 12.3933 136.088 12.9984C135.935 13.1498 135.838 13.321 135.799 13.5348C135.538 14.9437 135.277 16.3525 135.008 17.7598C134.97 17.9627 135.003 18.1298 135.11 18.3026C135.513 18.9565 135.912 19.6133 136.301 20.2759C136.388 20.4228 136.483 20.4693 136.647 20.4687C138.96 20.4633 141.273 20.4651 143.586 20.4651H143.925C143.614 22.0807 143.309 23.6637 142.999 25.2704C142.913 25.2767 142.831 25.2877 142.749 25.2877C139.75 25.2884 136.75 25.2869 133.75 25.2924C133.583 25.2926 133.49 25.2355 133.407 25.0919C132.577 23.6661 131.742 22.2431 130.906 20.8217C130.776 20.6016 130.737 20.379 130.786 20.1241C131.355 17.1388 131.92 14.153 132.481 11.1664C132.53 10.9074 132.639 10.6962 132.817 10.5098C134.17 9.09413 135.521 7.67692 136.869 6.25657C137.028 6.0895 137.219 5.98744 137.422 5.89868C142.338 5.89868 147.254 5.89868 152.169 5.89868L152.17 5.89894Z" fill="white"/>
<path d="M102.562 25.3725C102.387 25.2735 102.27 25.1237 102.167 24.9498C100.906 22.8158 99.6406 20.6841 98.377 18.5519C98.35 18.5072 98.3225 18.4633 98.2967 18.4187C98.1734 18.2054 97.9951 18.1034 97.7496 18.1076C97.3265 18.1151 96.9027 18.1128 96.4789 18.113C95.2668 18.1136 94.0546 18.113 92.8431 18.113C92.7503 18.113 92.6582 18.113 92.5432 18.113C92.4774 18.4284 92.4086 18.7309 92.3517 19.0358C92.1392 20.1711 91.9273 21.3064 91.7238 22.4432C91.6699 22.7458 91.546 22.9907 91.3275 23.2076C90.7248 23.8064 90.1334 24.4178 89.5468 25.0339C89.3552 25.2351 89.1457 25.3294 88.8698 25.3187C88.4723 25.303 88.0737 25.314 87.675 25.3135C87.5918 25.3135 87.5086 25.3135 87.3877 25.3135C87.4027 25.1454 87.4039 25.0002 87.4302 24.8603C88.0844 21.3871 88.7417 17.9141 89.3983 14.4414C89.7533 12.5642 90.1088 10.6871 90.4626 8.80961C90.5188 8.51123 90.6404 8.25223 90.8541 8.03612C91.446 7.4383 92.038 6.84024 92.6199 6.232C92.8126 6.03074 93.0227 5.93885 93.298 5.94955C93.7039 5.96548 94.1115 5.95399 94.5179 5.95425C94.6011 5.95425 94.6849 5.95425 94.8112 5.95425C94.3791 8.35355 93.9164 10.7166 93.4818 13.1174C93.5937 13.1328 93.6811 13.1555 93.7691 13.1555C95.4469 13.1589 97.1253 13.1578 98.8031 13.1639C99.0174 13.1647 99.1737 13.0725 99.3161 12.9242C99.7513 12.4726 100.19 12.0249 100.626 11.5743C102.317 9.82822 104.011 8.08515 105.695 6.33198C105.959 6.0571 106.244 5.93833 106.621 5.9459C107.586 5.96496 108.553 5.95321 109.519 5.95373C109.61 5.95373 109.703 5.95373 109.83 5.95373C109.555 7.5934 109.233 9.19513 108.932 10.8301C108.552 10.8301 108.187 10.8598 107.829 10.8228C107.333 10.7716 106.936 10.9241 106.592 11.2854C105.264 12.6781 103.931 14.0652 102.6 15.4548C102.529 15.5286 102.463 15.607 102.381 15.6981C102.429 15.7939 102.469 15.8881 102.521 15.975C103.349 17.3717 104.181 18.7657 105.006 20.1651C105.134 20.3836 105.289 20.4804 105.543 20.47C105.974 20.452 106.407 20.464 106.839 20.4648C106.914 20.4648 106.989 20.4718 107.087 20.4771C106.776 22.0963 106.469 23.6973 106.161 25.2999C106.093 25.3255 106.031 25.349 105.969 25.3722L102.562 25.3725Z" fill="white"/>
<path d="M155.297 5.95513H155.649C159.802 5.95513 163.953 5.95513 168.106 5.95513C169.326 5.95513 170.546 5.96087 171.766 5.94782C172.095 5.94443 172.301 6.07078 172.461 6.36289C172.751 6.89335 173.052 7.41988 173.384 7.92289C173.594 8.24112 173.623 8.56193 173.556 8.91384C173.334 10.0914 173.109 11.2682 172.887 12.4458C172.507 14.4595 172.128 16.4732 171.749 18.4872C171.492 19.8525 171.236 21.218 170.981 22.5835C170.943 22.7861 170.853 22.9571 170.71 23.1036C170.073 23.7538 169.438 24.4062 168.804 25.0596C168.619 25.2506 168.396 25.3222 168.137 25.3209C167.095 25.3154 166.053 25.3152 165.01 25.3152C160.672 25.3146 156.334 25.3152 151.995 25.3152H151.632C152.856 18.8498 154.073 12.4194 155.297 5.95513ZM156.356 20.4372H167.597C167.741 19.6515 167.883 18.8733 168.031 18.0643H158.672C158.977 16.428 159.277 14.8197 159.581 13.1926H168.923C169.123 12.4983 169.368 11.1413 169.342 10.8707H158.162C157.561 14.0567 156.961 17.2282 156.356 20.4372H156.356Z" fill="white"/>
<path d="M36.7344 20.5202C37.4158 22.1188 38.0824 23.6828 38.7596 25.2715C38.6703 25.2819 38.6065 25.2955 38.5429 25.2955C37.0853 25.2968 35.6277 25.2937 34.1701 25.3004C34.0055 25.3012 33.933 25.2339 33.8705 25.0906C33.2469 23.6626 32.6178 22.2373 31.9899 20.8113C31.9485 20.7168 31.9051 20.6233 31.8542 20.5105H28.4276C28.7309 18.8717 29.0292 17.2607 29.3303 15.635C29.5022 15.6274 29.6527 15.6148 29.8035 15.6148C31.9646 15.6148 34.1255 15.6162 36.2865 15.6172C36.3712 15.6172 36.4559 15.6172 36.5408 15.6164C36.7369 15.6148 36.9047 15.542 37.0428 15.4003C37.6963 14.7302 38.3494 14.0595 39.0019 13.3884C39.0428 13.3461 39.0785 13.2983 39.1214 13.2472C39.0881 13.1798 39.0609 13.1171 39.0273 13.0587C38.6499 12.3988 38.2659 11.7425 37.8972 11.0776C37.7955 10.8941 37.6732 10.8304 37.4698 10.8306C34.5461 10.8367 31.6222 10.8348 28.6986 10.8348C28.5989 10.8348 28.499 10.8348 28.3828 10.8348C28.3078 11.2154 28.2353 11.571 28.1679 11.9273C27.7193 14.2994 27.2715 16.6716 26.824 19.0437C26.6098 20.1785 26.3914 21.3127 26.1852 22.4491C26.1302 22.7516 26.0125 23.0007 25.7963 23.2186C25.1977 23.8222 24.6083 24.4348 24.0231 25.0522C23.8451 25.2402 23.6488 25.3282 23.3922 25.3221C22.8935 25.3104 22.3944 25.3188 21.8721 25.3188C21.8766 25.2331 21.8725 25.1671 21.8845 25.1042C22.2889 22.9537 22.6932 20.8029 23.1008 18.6529C23.5682 16.1873 24.0386 13.7223 24.5073 11.257C24.6614 10.4467 24.8181 9.63661 24.9656 8.82502C25.0202 8.5235 25.1453 8.2763 25.361 8.05835C25.9408 7.47282 26.5122 6.87789 27.0747 6.27459C27.2822 6.05218 27.5037 5.95063 27.8114 5.95142C31.9467 5.96108 36.0823 5.96134 40.2177 5.95403C40.4718 5.95351 40.6142 6.036 40.7428 6.25841C41.5606 7.67148 42.3907 9.07695 43.2204 10.4827C43.3552 10.7111 43.3885 10.9385 43.3359 11.2042C43.0663 12.5671 42.8097 13.9324 42.5511 15.2977C42.5079 15.5266 42.4148 15.7211 42.2538 15.8895C40.8651 17.3427 39.479 18.7981 38.0938 20.255C37.9107 20.4476 37.7014 20.5426 37.4349 20.5238C37.2175 20.5087 36.9983 20.5202 36.7344 20.5202Z" fill="white"/>
<path d="M2.75732 10.8343C3.06401 9.18733 3.36204 7.58529 3.66542 5.95634H4.00083C7.23829 5.95634 10.4757 5.95687 13.7131 5.95634C15.2132 5.95609 16.7133 5.96105 18.2132 5.94564C18.5783 5.94173 18.8103 6.07408 18.9961 6.39804C19.7616 7.73171 20.5397 9.05786 21.3267 10.3785C21.5025 10.6735 21.549 10.958 21.4839 11.295C21.0768 13.4009 20.6821 15.5093 20.2831 17.6168C20.1216 18.4702 19.9551 19.3222 19.8015 20.1772C19.7578 20.4207 19.6502 20.6136 19.4818 20.7836C19.0892 21.1801 18.7001 21.5808 18.3111 21.981C17.3234 22.9973 16.3339 24.0117 15.3508 25.0329C15.1509 25.2404 14.9238 25.3213 14.6449 25.3208C12.1279 25.3158 9.61086 25.3166 7.09385 25.3164C4.8395 25.3161 2.58517 25.3164 0.330839 25.3164H0C0.764412 21.2683 1.52272 17.2527 2.28154 13.2343H6.06065C5.61459 15.643 5.17237 18.0313 4.72379 20.4549C4.83543 20.4596 4.93155 20.4669 5.02793 20.4669C6.57889 20.4677 8.12981 20.4669 9.68078 20.4677C10.9945 20.4682 12.3079 20.4635 13.6213 20.4766C13.9616 20.48 14.2159 20.3675 14.4483 20.1116C14.9976 19.5076 15.5642 18.9202 16.1328 18.3349C16.3265 18.1355 16.4361 17.9133 16.4865 17.6343C16.7337 16.2669 16.9935 14.9019 17.256 13.5376C17.2966 13.3268 17.2631 13.1448 17.1581 12.9646C16.801 12.353 16.443 11.7417 16.0946 11.1251C15.9677 10.9003 15.7834 10.8225 15.5456 10.8241C15.0456 10.8275 14.5457 10.8285 14.0455 10.8288C10.3758 10.8312 6.70627 10.8329 3.03654 10.835C2.96102 10.835 2.88574 10.835 2.75707 10.835L2.75732 10.8343Z" fill="white"/>
<path d="M83.2948 10.8074C83.1744 10.8074 83.0828 10.8074 82.9907 10.8074C80.1097 10.8061 77.2282 10.8074 74.3466 10.7993C74.0443 10.7985 73.8133 10.897 73.6044 11.1201C73.0232 11.7412 72.4324 12.3525 71.8386 12.9608C71.6566 13.1472 71.5501 13.3623 71.5022 13.6178C70.8958 16.835 70.2877 20.0519 69.6807 23.2687C69.5712 23.849 69.4652 24.4301 69.3563 25.0104C69.3407 25.0945 69.3174 25.177 69.2952 25.2681C69.23 25.2741 69.1719 25.2838 69.1145 25.284C68.6057 25.2853 68.0975 25.2796 67.5887 25.2879C67.4426 25.2903 67.36 25.2371 67.2876 25.1091C66.9255 24.4701 66.5621 23.8318 66.1844 23.2024C66.0504 22.9782 66.018 22.7542 66.0653 22.5049C66.2084 21.7541 66.3472 21.0026 66.4891 20.2518C66.8692 18.2467 67.2505 16.2422 67.63 14.237C67.8174 13.2474 68.0041 12.2575 68.1867 11.2668C68.2465 10.9395 68.392 10.6678 68.6212 10.4307C69.9579 9.04693 71.2921 7.661 72.6203 6.26858C72.831 6.04722 73.0609 5.9488 73.3626 5.94932C77.4556 5.95507 81.5487 5.95611 85.6418 5.94776C85.9812 5.94698 86.1883 6.06862 86.3511 6.37483C86.6557 6.94705 86.9892 7.50308 87.3226 8.05807C87.4608 8.28806 87.4938 8.51622 87.4435 8.77908C86.991 11.1501 86.5432 13.5225 86.0967 15.8949C85.6855 18.0797 85.2772 20.2648 84.8672 22.4498C84.8115 22.7477 84.6822 23.0027 84.4692 23.2199C83.8796 23.8203 83.2935 24.4244 82.7147 25.0358C82.5232 25.2375 82.3113 25.3294 82.0365 25.3198C81.6301 25.3057 81.2231 25.3156 80.8166 25.3153C80.7334 25.3153 80.6508 25.3153 80.5437 25.3153C81.4625 20.4698 82.3759 15.6526 83.2948 10.8074Z" fill="white"/>
<path d="M47.4232 25.3142C46.9893 24.5739 46.566 23.8511 46.1425 23.1282C45.6884 22.3532 45.237 21.5763 44.7783 20.8042C44.6562 20.5987 44.6196 20.3888 44.6638 20.1557C45.1948 17.3572 45.7253 14.5586 46.2542 11.7599C46.4332 10.8128 46.613 9.86546 46.7803 8.91629C46.8447 8.55087 46.9962 8.25298 47.2579 7.9922C47.8232 7.42885 48.3776 6.85303 48.9223 6.26852C49.131 6.04455 49.3531 5.93203 49.6605 5.94953C50.049 5.97145 50.4399 5.95501 50.8297 5.95526C50.9131 5.95526 50.9968 5.95526 51.0896 5.95526C51.0896 6.02784 51.0975 6.07926 51.0886 6.1273C50.7804 7.77473 50.4712 9.42194 50.161 11.0691C49.764 13.1771 49.3665 15.2848 48.9691 17.3928C48.9449 17.5207 48.9271 17.6507 48.8925 17.7758C48.8422 17.9577 48.8811 18.1169 48.9754 18.2722C49.365 18.9147 49.7553 19.5566 50.138 20.203C50.2586 20.4063 50.4228 20.4713 50.6471 20.4705C52.6134 20.4648 54.5796 20.4661 56.5458 20.4655C56.8593 20.4655 57.1729 20.4629 57.4864 20.4687C57.6866 20.4723 57.8465 20.3961 57.9841 20.2515C58.6117 19.5916 59.24 18.9327 59.87 18.2754C60.0304 18.1081 60.1172 17.9101 60.1603 17.6799C60.7529 14.5129 61.3485 11.3466 61.9447 8.18041C62.0799 7.46412 62.2194 6.74882 62.3619 6.00904C62.4588 5.99181 62.5558 5.96127 62.6534 5.9597C63.0939 5.95292 63.5345 5.95735 63.975 5.95109C64.1744 5.94822 64.3114 6.03489 64.4126 6.20744C64.7885 6.8483 65.1644 7.48864 65.5469 8.12535C65.6678 8.3261 65.6744 8.53465 65.6331 8.75395C65.3607 10.1962 65.0878 11.638 64.8154 13.0803C64.397 15.2992 63.9798 17.518 63.562 19.737C63.5429 19.8393 63.5225 19.9416 63.5069 20.0447C63.4579 20.3651 63.3148 20.6253 63.0879 20.8571C61.7471 22.225 60.4123 23.5981 59.0839 24.9782C58.8522 25.2189 58.6033 25.3221 58.273 25.3213C54.7474 25.3124 51.2219 25.3148 47.6963 25.3142C47.6119 25.3142 47.5277 25.3142 47.4232 25.3142Z" fill="white"/>
<path d="M113.926 20.466H114.426C118.367 20.466 122.308 20.466 126.249 20.466C126.41 20.466 126.572 20.4778 126.732 20.4637C126.967 20.443 127.116 20.5501 127.229 20.7495C127.395 21.0429 127.568 21.3316 127.741 21.6206C127.937 21.9466 128.129 22.2743 128.334 22.5943C128.448 22.7739 128.482 22.9587 128.441 23.1652C128.319 23.7784 128.201 24.3927 128.078 25.0056C128.02 25.2925 128.015 25.2951 127.728 25.2951C121.651 25.2951 115.574 25.2951 109.497 25.2951C109.415 25.2951 109.333 25.2951 109.223 25.2951C109.267 25.0338 109.302 24.8043 109.345 24.5764C110.014 21.0526 110.683 17.529 111.353 14.0054C111.69 12.2308 112.032 10.4572 112.367 8.68212C112.406 8.47584 112.494 8.31116 112.637 8.16418C113.271 7.51051 113.904 6.85555 114.53 6.19536C114.689 6.02829 114.862 5.94893 115.093 5.95572C115.542 5.96851 115.991 5.95807 116.441 5.95833C116.499 5.95833 116.557 5.96538 116.65 5.97139C115.744 10.7947 114.84 15.603 113.927 20.4658L113.926 20.466Z" fill="white"/>
<path d="M199.455 1.11938C202.136 0.539963 204.923 0.786396 207.468 1.82739C210.012 2.86837 212.2 4.65714 213.756 6.96899C215.313 9.28097 216.17 12.0133 216.219 14.8225C216.22 14.8957 216.161 14.9569 216.088 14.9583L214.286 14.9905C214.251 14.991 214.217 14.9778 214.192 14.9534C214.166 14.929 214.152 14.8956 214.151 14.8606C214.11 12.4664 213.38 10.1386 212.054 8.16919C210.728 6.1998 208.866 4.67617 206.7 3.79028C204.535 2.90441 202.163 2.69474 199.882 3.18774C197.601 3.68078 195.513 4.85519 193.879 6.56274C192.245 8.27038 191.138 10.4356 190.698 12.7874C190.259 15.1391 190.506 17.5716 191.408 19.7795C192.311 21.9874 193.827 23.8725 195.769 25.1975C197.035 26.0616 198.444 26.6621 199.918 26.9758C199.954 26.9836 199.986 27.0064 200.005 27.0383C200.024 27.0701 200.028 27.1084 200.018 27.1438L199.483 28.9182C199.462 28.9847 199.394 29.0244 199.326 29.009C197.656 28.631 196.06 27.9379 194.621 26.9563C192.341 25.3997 190.559 23.1863 189.501 20.595C188.442 18.0037 188.152 15.1493 188.668 12.3899C189.185 9.63054 190.483 7.08852 192.401 5.08325C194.32 3.07792 196.774 1.69881 199.455 1.11938Z" fill="#67A739" stroke="#67A739" stroke-width="0.265417" stroke-linejoin="round"/>
<path d="M214.975 16.8988C214.914 16.9874 214.787 16.9874 214.727 16.8988L212.12 13.05C212.05 12.9474 212.122 12.8069 212.244 12.8069H217.457C217.579 12.8069 217.65 12.9474 217.581 13.05L214.975 16.8988Z" fill="#67A739"/>
<path fill-rule="evenodd" clip-rule="evenodd" d="M204.344 6.16626C204.848 6.16626 205.363 6.63496 205.363 7.21313L203.391 16.5952C203.346 16.8082 203.355 17.0612 203.196 17.2055C203.13 17.266 203.042 17.3026 202.946 17.3026H194.598C194.035 17.3026 193.578 16.834 193.578 16.2557C193.578 15.6776 194.035 15.2089 194.598 15.2089H201.462C201.67 15.2089 201.761 15.276 201.839 14.8219L203.324 7.21313C203.522 6.16626 204.185 6.16626 204.344 6.16626Z" fill="#67A739"/>
<path d="M214.975 16.8988C214.914 16.9874 214.787 16.9874 214.727 16.8988L212.12 13.05C212.05 12.9474 212.122 12.8069 212.244 12.8069H217.457C217.579 12.8069 217.65 12.9474 217.581 13.05L214.975 16.8988Z" stroke="#67A739" stroke-width="0.479296"/>
<path d="M204.115 29.4332L204.398 27.7912L208.888 24.239C209.273 23.9232 209.599 23.639 209.866 23.3864C210.137 23.1338 210.351 22.8865 210.507 22.6444C210.668 22.3989 210.773 22.134 210.823 21.8498C210.876 21.534 210.849 21.2621 210.743 21.0341C210.639 20.8025 210.472 20.6253 210.24 20.5026C210.012 20.3763 209.738 20.3131 209.417 20.3131C209.082 20.3131 208.778 20.3798 208.503 20.5131C208.229 20.6464 208.001 20.8376 207.819 21.0867C207.637 21.3358 207.516 21.6323 207.456 21.9761H205.259C205.38 21.2709 205.649 20.6587 206.066 20.1395C206.483 19.6202 207.007 19.2185 207.637 18.9343C208.268 18.6501 208.966 18.5081 209.732 18.5081C210.516 18.5081 211.175 18.6449 211.71 18.9185C212.248 19.1886 212.638 19.5641 212.88 20.0447C213.123 20.5254 213.19 21.0762 213.084 21.6971C213.012 22.1077 212.861 22.5111 212.629 22.9076C212.398 23.3005 212.034 23.739 211.539 24.2232C211.044 24.7039 210.365 25.281 209.502 25.9546L207.648 27.4965L207.632 27.5702H212.234L211.918 29.4332H204.115Z" fill="white"/>
<path d="M213.589 27.5397L213.888 25.7452L219.655 18.6565H221.227L220.809 21.1404H219.875L216.24 25.6294L216.229 25.7136H222.718L222.413 27.5397H213.589ZM218.522 29.4343L218.939 26.9871L219.116 26.203L220.382 18.6565H222.552L220.735 29.4343H218.522Z" fill="white"/>
<path d="M230.403 18.1506L224.716 31.0545H222.755L228.441 18.1506H230.403Z" fill="white"/>
<path d="M230.083 29.4343L236.106 20.5931L236.128 20.5194H230.847L231.152 18.6565H238.832L238.517 20.5457L232.473 29.4343H230.083Z" fill="white"/>
</svg>
