<svg width="75" height="39" viewBox="0 0 75 39" fill="none" xmlns="http://www.w3.org/2000/svg">
<path d="M55.1441 10.6494L23.5286 10.6466C22.4937 10.4218 22.0853 9.1482 22.7791 8.36983C22.9241 8.20619 23.6545 7.80918 23.8126 7.80918H49.6489V2.0447C49.6489 1.13969 47.9655 -0.183675 46.9804 0.0212329C38.0277 2.17704 28.8569 3.63844 19.932 5.88531C18.3174 6.29228 17.202 6.54984 17 8.4424L17.019 36.7525C17.3147 38.2694 18.3526 38.8599 19.8559 38.9752C31.9865 38.8457 44.1684 39.2114 56.2712 38.7902C57.0924 38.4814 57.6619 37.925 57.8931 37.094L58 13.1382C57.8492 11.5046 56.7748 10.7163 55.1456 10.648L55.1441 10.6494ZM51.3206 27.2897C47.6538 27.7991 47.402 22.7461 50.6429 22.4943C53.7096 22.2552 54.2834 26.8785 51.3206 27.2897Z" fill="#67A739"/>
</svg>
