<svg width="75" height="37" viewBox="0 0 75 37" fill="none" xmlns="http://www.w3.org/2000/svg">
<path d="M53.9444 25.6944C51.375 25.6944 48.9083 25.2833 46.6061 24.5228C46.4006 24.4611 46.1744 24.42 45.9689 24.42C45.4344 24.42 44.9206 24.6256 44.5094 25.0161L39.9872 29.5383C34.17 26.5783 29.4011 21.83 26.4411 16.0128L30.9633 11.47C31.5389 10.915 31.7033 10.1133 31.4772 9.39389C30.7167 7.09167 30.3056 4.625 30.3056 2.05556C30.3056 0.925 29.3806 0 28.25 0H21.0556C19.925 0 19 0.925 19 2.05556C19 21.3572 34.6428 37 53.9444 37C55.075 37 56 36.075 56 34.9444V27.75C56 26.6194 55.075 25.6944 53.9444 25.6944ZM37.5 0V20.5556L43.6667 14.3889H56V0H37.5Z" fill="#67A739"/>
</svg>
