<svg width="75" height="35" viewBox="0 0 75 35" fill="none" xmlns="http://www.w3.org/2000/svg">
<g clip-path="url(#clip0_1_1007)">
<path d="M39.4954 20.3668C39.5062 20.381 39.7414 20.2623 39.7871 20.222C41.1155 19.0278 42.373 17.323 43.7405 16.1745C45.9257 14.3401 48.3319 16.7122 46.628 18.8438C44.0062 21.1104 41.6435 24.2914 39.0076 26.4654C37.9329 27.3516 37.1381 27.3527 36.0624 26.4654C33.8642 23.8505 30.526 21.4664 28.442 18.8438C26.761 16.7264 29.0844 14.3521 31.3295 16.1745C32.7983 17.3665 34.0689 19.1693 35.5746 20.3668V1.69653C35.5757 0.851745 36.6558 0.0211074 37.4811 0.00042308C38.3489 -0.0213499 39.4954 0.800579 39.4954 1.69653V20.3668Z" fill="#67A739"/>
<path d="M21.9444 23.2208C22.6945 23.1827 23.4872 23.6683 23.804 24.3509C24.282 25.3796 23.8987 26.7176 24.0425 27.8138C24.2276 29.2236 25.7366 30.7314 27.1455 30.9165L48.1002 30.8762C49.435 30.6324 50.8483 29.1649 51.0258 27.8138C51.1847 26.6 50.6915 25.0672 51.4711 24.0134C52.4129 22.7418 54.4805 23.0891 54.88 24.6306C55.0423 25.2566 55.0063 26.9135 54.9584 27.6092C54.6895 31.5457 51.5233 34.6059 47.6102 34.8498C40.7117 35.2798 33.2253 34.6299 26.2952 34.7061C21.7321 33.747 19.3825 29.2541 20.1403 24.8005C20.2851 23.9492 21.0897 23.2644 21.9444 23.2208Z" fill="#67A739"/>
</g>
<defs>
<clipPath id="clip0_1_1007">
<rect width="35" height="35" fill="white" transform="translate(20)"/>
</clipPath>
</defs>
</svg>
