<svg width="75" height="35" viewBox="0 0 75 35" fill="none" xmlns="http://www.w3.org/2000/svg">
<path d="M18 30.5625C18 32.7716 19.7909 34.5625 22 34.5625H53C55.2091 34.5625 57 32.7716 57 30.5625V4.4375C57 2.22836 55.2091 0.4375 53 0.4375H22C19.7909 0.4375 18 2.22836 18 4.4375V30.5625ZM39.0796 16.3104C40.0544 15.3356 41.6698 15.4633 42.4793 16.5791L42.7728 16.9837C43.8334 18.4455 46.0094 18.4536 47.0807 16.9997L50.5402 12.3051C51.3613 11.1907 52.9818 11.0687 53.9606 12.0475C54.8447 12.9316 54.8439 14.3651 53.9589 15.2482L47.2122 21.9802C45.6457 23.5433 43.1077 23.5375 41.5484 21.9672L39.074 19.4752C38.2038 18.5988 38.2063 17.1837 39.0796 16.3104ZM20.4375 7.75C20.4375 6.40381 21.5288 5.3125 22.875 5.3125H30.1875C31.5337 5.3125 32.625 6.40381 32.625 7.75C32.625 9.09619 31.5337 10.1875 30.1875 10.1875H22.875C21.5288 10.1875 20.4375 9.09619 20.4375 7.75ZM20.4375 17.5C20.4375 16.1538 21.5288 15.0625 22.875 15.0625H30.1875C31.5337 15.0625 32.625 16.1538 32.625 17.5C32.625 18.8462 31.5337 19.9375 30.1875 19.9375H22.875C21.5288 19.9375 20.4375 18.8462 20.4375 17.5ZM20.4375 27.25C20.4375 25.9038 21.5288 24.8125 22.875 24.8125H30.1875C31.5337 24.8125 32.625 25.9038 32.625 27.25C32.625 28.5962 31.5337 29.6875 30.1875 29.6875H22.875C21.5288 29.6875 20.4375 28.5962 20.4375 27.25Z" fill="#67A739"/>
<path d="M55.5619 13.6488L52.1006 10.1875L44.3737 17.9144L40.9369 14.4531L37.5 17.89L44.3737 24.8125L55.5619 13.6488Z" fill="#1F1F1F"/>
<path d="M30.8523 5.3125H23.5398C22.1936 5.3125 21.1023 6.40381 21.1023 7.75C21.1023 9.09619 22.1936 10.1875 23.5398 10.1875H30.8523C32.1985 10.1875 33.2898 9.09619 33.2898 7.75C33.2898 6.40381 32.1985 5.3125 30.8523 5.3125Z" fill="#1F1F1F"/>
<path d="M30.8523 15.0591H23.5398C22.1936 15.0591 21.1023 16.1504 21.1023 17.4966C21.1023 18.8428 22.1936 19.9341 23.5398 19.9341H30.8523C32.1985 19.9341 33.2898 18.8428 33.2898 17.4966C33.2898 16.1504 32.1985 15.0591 30.8523 15.0591Z" fill="#1F1F1F"/>
<path d="M30.8523 24.8125H23.5398C22.1936 24.8125 21.1023 25.9038 21.1023 27.25C21.1023 28.5962 22.1936 29.6875 23.5398 29.6875H30.8523C32.1985 29.6875 33.2898 28.5962 33.2898 27.25C33.2898 25.9038 32.1985 24.8125 30.8523 24.8125Z" fill="#1F1F1F"/>
</svg>
