<svg width="75" height="35" viewBox="0 0 75 35" fill="none" xmlns="http://www.w3.org/2000/svg">
<g clip-path="url(#clip0_1_1015)">
<path d="M24.5023 0.0333311L50.2918 0C52.9636 0.217842 54.8393 2.13676 54.9988 4.81515V30.1801C54.7953 32.949 52.9422 34.7988 50.1787 35.0012H24.8201C22.0518 34.7976 20.2023 32.9442 20 30.1801L20.006 4.70206C20.213 2.17009 21.9649 0.292837 24.5023 0.0333311ZM42.2594 11.1457C42.2594 7.63877 39.4173 4.79491 35.91 4.79491C32.4026 4.79491 29.5605 7.63758 29.5605 11.1457C29.5605 14.6538 32.4026 17.4964 35.91 17.4964C39.4173 17.4964 42.2594 14.6538 42.2594 11.1457ZM24.9439 30.2337H35.7743L35.9528 30.0551V19.9367C35.9528 19.7951 36.4122 19.1368 36.3098 19.0451C30.7257 18.9201 25.7044 22.9699 24.9177 28.5409C24.8737 28.8492 24.688 30.1563 24.9451 30.2349L24.9439 30.2337ZM43.7828 19.0797C42.77 19.1785 41.8274 19.2213 40.8312 19.4606C39.7625 19.7165 37.4869 20.4903 39.2686 21.6212C41.2061 22.8508 47.8139 22.9008 49.68 21.5247C49.9823 21.3021 50.312 21.0283 50.1489 20.6284C49.7276 19.5963 47.3295 19.3606 46.3654 19.1654L43.784 19.0797H43.7828ZM50.2346 23.8055C49.5777 23.9543 48.9826 24.2734 48.3304 24.4602C46.0191 25.1209 43.6817 25.1935 41.3299 24.6769C40.3754 24.4674 39.4971 24.0924 38.5711 23.8055V26.0673C42.238 27.6541 46.6106 27.9064 50.2346 26.0673V23.8055ZM50.2346 28.4481C48.0364 29.298 45.8882 29.7765 43.5043 29.6444C41.7584 29.548 40.1945 29.0183 38.5711 28.4481V30.7098C42.2511 32.2895 46.5975 32.5311 50.2346 30.7098V28.4481Z" fill="#67A739"/>
</g>
<defs>
<clipPath id="clip0_1_1015">
<rect width="35" height="35" fill="white" transform="translate(20)"/>
</clipPath>
</defs>
</svg>
