<svg width="64" height="64" viewBox="0 0 64 64" fill="none" xmlns="http://www.w3.org/2000/svg">
<g clip-path="url(#clip0_1_938)">
<mask id="mask0_1_938" style="mask-type:luminance" maskUnits="userSpaceOnUse" x="0" y="0" width="64" height="64">
<path d="M48.145 0.820312H15.9164C7.54023 0.820312 0.75 7.61055 0.75 15.9867V48.2154C0.75 56.5915 7.54023 63.3818 15.9164 63.3818H48.145C56.5212 63.3818 63.3115 56.5915 63.3115 48.2154V15.9867C63.3115 7.61055 56.5212 0.820312 48.145 0.820312Z" fill="white"/>
</mask>
<g mask="url(#mask0_1_938)">
<path d="M63.3115 0.820312H0.75V63.3818H63.3115V0.820312Z" fill="#100943"/>
<path d="M63.312 32.1045C80.5879 32.1045 94.5927 18.0996 94.5927 0.823715C94.5927 -16.4522 80.5879 -30.457 63.312 -30.457C46.0361 -30.457 32.0312 -16.4522 32.0312 0.823715C32.0312 18.0996 46.0361 32.1045 63.312 32.1045Z" fill="#ED143B"/>
<path d="M39.3956 30.6731H20.9127V23.3591H39.3956C40.4752 23.3591 41.2259 23.5473 41.6026 23.8759C41.9794 24.2046 42.2127 24.8141 42.2127 25.7044V28.3306C42.2127 29.2687 41.9794 29.8782 41.6026 30.2068C41.2259 30.5354 40.4752 30.6759 39.3956 30.6759V30.6731ZM40.6636 16.4637H13.0742V47.7417H20.9127V37.5657H35.3582L42.2127 47.7417H50.9903L43.4329 37.5179C46.2191 37.105 47.4702 36.2512 48.502 34.844C49.5338 33.4368 50.0514 31.1871 50.0514 28.1845V25.8393C50.0514 24.0585 49.8627 22.6513 49.5338 21.5728C49.2049 20.4943 48.6428 19.5562 47.8442 18.7135C47.0007 17.9159 46.0617 17.3541 44.9343 16.9777C43.8068 16.6491 42.3983 16.4609 40.6636 16.4609V16.4637Z" fill="white"/>
</g>
</g>
<defs>
<clipPath id="clip0_1_938">
<rect width="62.5615" height="62.5615" fill="white" transform="translate(0.75 0.820312)"/>
</clipPath>
</defs>
</svg>
